HIERARCHY
ROOT Hips
{
	OFFSET -3.958830 18.904000 13.208200
	CHANNELS 6 Xposition Yposition Zposition Zrotation Yrotation Xrotation 
	JOINT LHipJoint
	{
		OFFSET 0.000000 0.000000 0.000000
		CHANNELS 3 Zrotation Yrotation Xrotation
		JOINT LeftUpLeg
		{
			OFFSET 1.800000 -1.400000 0.085000
			CHANNELS 3 Zrotation Yrotation Xrotation
			JOINT LeftLeg
			{
				OFFSET 2.215000 -6.000000 0.000000
				CHANNELS 3 Zrotation Yrotation Xrotation
				JOINT LeftFoot
				{
					OFFSET 2.500000 -6.900000 0.000000
					CHANNELS 3 Zrotation Yrotation Xrotation
					JOINT LeftToeBase
					{
						OFFSET 0.200000 -0.500000 1.950000
						CHANNELS 3 Zrotation Yrotation Xrotation
						End Site
						{
							OFFSET 0.000000 0.000000 0.000000
						}
					}
				}
			}
		}
	}
	JOINT RHipJoint
	{
		OFFSET 0.000000 0.000000 0.000000
		CHANNELS 3 Zrotation Yrotation Xrotation
		JOINT RightUpLeg
		{
			OFFSET -1.800000 -1.400000 0.085000
			CHANNELS 3 Zrotation Yrotation Xrotation
			JOINT RightLeg
			{
				OFFSET -2.215000 -6.000000 0.000000
				CHANNELS 3 Zrotation Yrotation Xrotation
				JOINT RightFoot
				{
					OFFSET -2.500000 -6.900000 0.000000
					CHANNELS 3 Zrotation Yrotation Xrotation
					JOINT RightToeBase
					{
						OFFSET -0.200000 -0.500000 1.950000
						CHANNELS 3 Zrotation Yrotation Xrotation
						End Site
						{
							OFFSET 0.000000 0.000000 0.000000
						}
					}
				}
			}
		}
	}
	JOINT LowerBack
	{
		OFFSET 0.000000 0.000000 0.000000
		CHANNELS 3 Zrotation Yrotation Xrotation
		JOINT Spine
		{
			OFFSET -0.087000 1.940000 -0.288900
			CHANNELS 3 Zrotation Yrotation Xrotation
			JOINT Spine1
			{
				OFFSET 0.000000 1.950000 0.060000
				CHANNELS 3 Zrotation Yrotation Xrotation
				JOINT Neck
				{
					OFFSET 0.000000 0.000000 0.000000
					CHANNELS 3 Zrotation Yrotation Xrotation
					JOINT Neck1
					{
						OFFSET 0.000000 1.600000 0.340000
						CHANNELS 3 Zrotation Yrotation Xrotation
						JOINT Head
						{
							OFFSET 0.000000 1.667000 -0.240000
							CHANNELS 3 Zrotation Yrotation Xrotation
							End Site
							{
								OFFSET 0.000000 0.000000 0.000000
							}
						}
					}
				}
				JOINT LeftShoulder
				{
					OFFSET 0.000000 0.000000 0.000000
					CHANNELS 3 Zrotation Yrotation Xrotation
					JOINT LeftArm
					{
						OFFSET 2.700000 1.550000 -0.730000
						CHANNELS 3 Zrotation Yrotation Xrotation
						JOINT LeftForeArm
						{
							OFFSET 5.450000 0.000000 0.000000
							CHANNELS 3 Zrotation Yrotation Xrotation
							JOINT LeftHand
							{
								OFFSET 3.450000 0.000000 0.000000
								CHANNELS 3 Zrotation Yrotation Xrotation
								JOINT LeftHandIndex1
								{
									OFFSET 0.750000 0.000000 0.000000
									CHANNELS 3 Zrotation Yrotation Xrotation
									End Site
									{
										OFFSET 0.000000 0.000000 0.000000
									}
								}
							}
						}
					}
				}
				JOINT RightShoulder
				{
					OFFSET 0.000000 0.000000 0.000000
					CHANNELS 3 Zrotation Yrotation Xrotation
					JOINT RightArm
					{
						OFFSET -2.700000 1.550000 -0.730000
						CHANNELS 3 Zrotation Yrotation Xrotation
						JOINT RightForeArm
						{
							OFFSET -5.450000 0.000000 0.000000
							CHANNELS 3 Zrotation Yrotation Xrotation
							JOINT RightHand
							{
								OFFSET -3.450000 0.000000 0.000000
								CHANNELS 3 Zrotation Yrotation Xrotation
								JOINT RightHandIndex1
								{
									OFFSET -0.750000 0.000000 0.000000
									CHANNELS 3 Zrotation Yrotation Xrotation
									End Site
									{
										OFFSET 0.000000 0.000000 0.000000
									}
								}
							}
						}
					}
				}
			}
		}
	}
}
MOTION
Frames: 13
Frame Time: 0.016667
0.724440 17.713810 -5.757390 -12.248942 31.790048 -8.245907 -15.174450 12.416544 1.570148 3.800905 -0.797291 -7.049799 0.012556 4.823972 18.260218 -0.887044 4.646666 3.235603 0.380650 -0.038660 0.231240 18.599215 -9.665846 4.588600 -10.859343 8.008840 -41.730842 15.718259 -26.389902 66.940191 -2.194775 -13.105624 0.208400 0.278400 0.595380 0.285830 -4.755014 -0.761562 -7.639648 21.302383 -5.734135 7.416024 -5.582035 -5.242177 12.137882 2.515341 1.762512 -10.972172 3.501473 -5.074958 18.704939 -2.823410 -3.211820 -10.467160 -9.922220 -7.489929 6.576573 -38.687156 -1.693091 0.416242 -145.010068 -65.177535 116.380406 -4.049433 3.231161 0.453820 0.438470 -0.309680 0.234850 4.684455 4.138530 6.264549 44.131834 5.703482 0.276310 133.574766 56.298283 86.408297 1.689065 -1.921028 -0.444790 0.422180 0.147500 -0.282380 
0.709610 17.709670 -5.751840 -11.570808 32.017202 -8.680388 -15.205708 12.594468 1.687185 3.112904 -0.685690 -6.518547 0.590836 4.680511 18.465613 -0.856906 4.625251 3.231974 0.389100 -0.029180 0.266490 18.524569 -9.835671 4.370892 -10.181755 7.240882 -40.051156 14.870730 -24.027579 63.343404 -1.962146 -12.165820 0.438253 0.262770 0.543780 0.291540 -4.648524 -0.888894 -7.590118 19.776941 -5.607528 8.094072 -4.866756 -5.254587 12.325495 2.558850 2.229894 -11.095245 4.109757 -5.405779 19.417597 -3.542230 -2.720110 -11.342740 -9.794302 -7.973332 6.508003 -37.567172 -2.575968 0.274793 -150.391781 -66.642009 125.761790 -3.983872 3.200232 0.475450 0.410770 -0.270420 0.220290 4.471335 4.398003 6.508559 44.314637 6.163823 0.424968 136.487774 56.865299 91.172393 1.687163 -1.877981 -0.425220 0.396300 0.128940 -0.296370 
0.695670 17.679620 -5.734780 -10.323168 31.330519 -8.739483 -15.244081 12.844591 1.889640 1.744680 -0.593297 -6.256861 1.344205 4.523131 19.295813 -0.833007 4.661701 3.212784 0.377850 -0.051440 0.284880 18.419629 -10.116193 4.015106 -9.174928 6.180072 -37.489536 13.234024 -20.001015 56.932110 -1.520821 -10.530085 0.871222 0.243740 0.518930 0.294480 -4.452867 -1.038043 -7.463403 17.132307 -4.920916 8.390953 -3.211596 -4.932046 12.555735 2.385547 2.795452 -11.250718 4.856414 -5.593163 20.296401 -4.427860 -2.220810 -11.135420 -9.597888 -8.737164 6.342806 -35.155251 -3.964010 0.516179 -155.869292 -68.586282 135.952293 -3.940270 3.184711 0.480000 0.405640 -0.264280 0.204310 4.684852 5.015267 6.845516 43.449258 6.834811 0.887717 142.179276 57.559968 100.499186 1.648959 -1.838850 -0.423370 0.371270 0.126370 -0.312270 
0.685150 17.611660 -5.711170 -9.459655 31.671372 -7.949093 -15.305937 12.981291 2.019289 0.982156 -0.544124 -5.943264 1.430988 4.423783 18.918829 -0.876924 4.700061 3.228169 0.399360 -0.020890 0.286390 18.332964 -10.230686 3.778282 -9.205822 5.020688 -37.034571 12.688981 -17.087699 50.097935 -1.104239 -9.083199 1.288174 0.304270 0.579740 0.285390 -4.223986 -1.208162 -7.284031 14.300076 -4.603288 7.072697 -1.371517 -5.170676 12.684352 2.139189 3.343880 -11.056391 5.782453 -5.311151 19.719963 -4.863840 -1.906190 -9.874260 -8.649545 -8.379300 5.669893 -33.060400 -6.049190 1.570075 -161.139213 -71.062246 146.357289 -3.953854 3.192864 0.433730 0.465240 -0.316070 0.228820 4.403654 4.362729 6.846999 42.510793 7.604883 2.539029 149.642614 57.693215 112.932365 1.514250 -1.910992 -0.457490 0.410190 0.122000 -0.309950 
0.684370 17.513740 -5.686010 -9.198355 32.267119 -7.329817 -15.340751 13.093596 2.129828 1.487202 -0.348747 -4.677285 0.241167 4.589294 16.782854 -0.912353 4.752989 3.237832 0.457870 0.080010 0.269280 18.272943 -10.380597 3.470223 -8.820383 3.897449 -35.756991 12.271826 -14.001353 41.783035 -0.684278 -7.427278 1.795219 0.409100 0.657050 0.301460 -4.092343 -1.275797 -7.041816 12.846065 -4.635781 5.155403 -0.481557 -5.711504 12.906575 1.818179 3.391415 -10.361641 5.913680 -5.032852 18.819149 -4.690690 -2.408610 -9.293370 -8.001100 -7.422767 4.365978 -29.863772 -9.008833 2.917800 -168.066693 -74.939528 159.263804 -3.996090 3.253425 0.352120 0.537140 -0.361730 0.272600 4.619001 3.292970 6.694952 41.289229 8.760110 5.074544 160.033820 57.089452 130.762765 1.354249 -2.070232 -0.457390 0.456110 0.115800 -0.273290 
0.688350 17.409460 -5.688190 -8.581220 32.593261 -6.674269 -15.389149 13.185219 2.269212 1.124014 -0.232579 -4.248793 -0.742012 4.747701 15.624094 -0.964241 4.833540 3.227560 0.464590 0.094090 0.272480 18.198866 -10.455486 3.250046 -9.333114 2.905049 -34.710870 12.229248 -11.338399 33.347059 -0.324090 -5.922187 2.292047 0.461030 0.712880 0.307160 -3.898555 -1.411550 -6.899644 10.632562 -4.557301 4.147088 0.906492 -5.993341 12.623095 1.766474 4.229501 -9.985521 7.275530 -4.940832 18.370496 -5.508780 -2.007480 -8.414510 -7.720369 -7.584914 3.474002 -26.727427 -12.307911 4.288568 179.953281 -78.891744 176.313778 -4.092214 3.311026 0.308850 0.606610 -0.410500 0.273190 4.614667 2.880841 6.606898 40.075763 9.933453 5.391301 167.930512 59.558628 146.827888 1.231756 -2.123192 -0.488640 0.487970 0.133950 -0.282200 
0.694710 17.288750 -5.676690 -7.823591 32.369352 -5.650755 -15.427265 13.239924 2.347070 0.579872 -0.173788 -4.053933 -1.230941 4.893759 15.807631 -1.013366 4.989738 3.197359 0.513460 0.151350 0.283480 18.150049 -10.489301 3.100039 -9.221406 2.470618 -33.861277 11.040784 -8.436940 25.285696 -0.037319 -4.560441 2.762053 0.552970 0.789420 0.326270 -3.727704 -1.486229 -6.740164 8.067206 -4.271040 2.835287 2.420477 -6.030320 12.179818 1.666290 5.110731 -9.422986 8.772461 -4.698534 17.658997 -5.918310 -1.892400 -6.744410 -7.500901 -7.166572 2.470107 -23.488966 -16.260920 6.782191 156.572279 -82.590273 -156.621164 -4.262180 3.439134 0.236070 0.693800 -0.475360 0.306450 4.830063 1.982239 6.198759 38.831545 11.868340 6.378787 -178.482579 61.666771 171.095737 1.141351 -2.325652 -0.513130 0.513630 0.126280 -0.276180 
0.711830 17.177770 -5.666380 -7.151580 31.840700 -4.571989 -15.466391 13.286889 2.360328 -0.313925 -0.083069 -3.809148 -0.359948 4.712233 16.584971 -1.083367 5.088044 3.158960 0.570040 0.231580 0.328070 18.123199 -10.406172 3.060385 -9.119812 2.342011 -33.586396 9.534272 -6.090233 18.204828 0.137790 -3.568321 3.103976 0.652590 0.824340 0.352390 -3.568997 -1.671839 -6.614604 5.922635 -4.137745 1.732347 3.804641 -6.079816 10.863500 1.681683 6.209052 -8.331744 10.577416 -4.381356 16.907419 -7.091480 -0.961150 -6.123310 -7.408314 -7.803023 0.245193 -19.349717 -19.299970 5.557485 -145.945250 -88.387642 147.049725 -4.156680 2.842245 0.175650 0.776280 -0.509680 0.309430 5.038278 1.655898 5.958726 37.514618 13.446539 6.429374 -162.348312 66.390429 -164.168082 1.145022 -2.461889 -0.525770 0.526680 0.119430 -0.292700 
0.716220 17.086350 -5.638390 -6.459144 29.436239 -3.450345 -15.466062 13.236673 2.372327 -1.140973 -0.017952 -3.885267 -0.464605 4.787308 17.179986 -1.126720 5.199972 3.126989 0.595920 0.267710 0.364500 18.146376 -10.315795 3.089182 -7.607171 2.787762 -33.646081 7.463929 -4.431756 13.750691 0.239623 -2.976041 3.317244 0.717540 0.866020 0.373490 -3.502261 -1.700305 -6.575303 4.472397 -3.527306 0.822285 5.064813 -5.663872 10.391206 1.400766 6.691103 -8.133217 11.465729 -3.684199 16.032472 -8.082280 0.073310 -5.158850 -7.802773 -8.449324 -0.142846 -13.675308 -22.013668 7.790925 -14.586279 -85.883691 13.865844 -4.437818 3.432375 0.118860 0.853920 -0.547970 0.308270 6.076902 2.125749 5.673882 35.874617 15.086456 7.427133 -142.361599 67.593107 -137.639166 1.271427 -2.372173 -0.545110 0.533860 0.115050 -0.307000 
0.725000 17.019090 -5.593070 -5.573956 24.967587 -2.801887 -15.447617 13.131563 2.434168 -2.396100 0.175931 -3.757132 -1.302851 5.128618 17.834526 -1.103960 5.366287 3.078384 0.549060 0.207230 0.338250 18.186013 -10.284096 3.097431 -5.151191 3.341170 -32.360165 6.182908 -3.473777 10.661389 0.308851 -2.677957 3.445627 0.701770 0.917150 0.394960 -3.465581 -1.587154 -6.574795 3.125227 -2.286420 0.383366 6.371901 -4.561776 10.079301 1.178351 7.071996 -8.265217 12.162749 -2.892692 15.880365 -8.268600 0.979280 -3.782860 -7.603338 -9.591239 -0.487858 -9.467906 -23.252218 8.243199 -28.947942 -80.574903 25.089206 -4.556184 3.496778 0.083900 0.910560 -0.592840 0.295610 6.329854 3.292449 5.980317 33.620151 16.369297 8.583628 -127.455987 68.026644 -118.877855 1.421159 -1.858351 -0.565910 0.519650 0.148800 -0.311820 
0.746080 16.981300 -5.578940 -5.257371 22.129883 -2.407591 -15.442267 13.076913 2.475428 -2.926994 0.200773 -3.958463 -2.377266 5.538330 18.353142 -1.055140 5.472657 3.038043 0.514110 0.157250 0.342050 18.204723 -10.225267 3.134749 -3.651231 3.706536 -32.190558 5.885309 -3.241527 9.955933 0.325179 -2.567996 3.492634 0.660430 0.907220 0.402730 -3.429148 -1.600406 -6.618651 2.734060 -1.794492 0.387393 7.298059 -4.114766 9.782347 0.993798 7.321287 -8.457175 12.522808 -2.533376 16.145732 -8.708300 1.758730 -3.267960 -7.995960 -11.234255 -0.444154 -5.274784 -23.827160 8.489203 -44.675977 -75.243016 35.655492 -4.616383 3.516217 0.085640 0.914380 -0.591450 0.275950 7.077891 4.728472 6.174940 29.585487 16.945831 8.720585 -115.166182 68.216304 -101.605970 1.480203 -0.583672 -0.564610 0.489750 0.155180 -0.323810 
0.765200 16.966430 -5.575820 -4.987406 20.905513 -1.784041 -15.447501 13.057631 2.499645 -3.374370 -0.039373 -5.114677 -3.151325 5.894131 19.605669 -0.999738 5.569239 2.998315 0.483720 0.129650 0.301760 18.208224 -10.151816 3.169571 -2.655543 3.969908 -32.277833 6.047359 -3.199793 9.843574 0.341931 -2.539968 3.515356 0.630990 0.922470 0.414940 -3.389633 -1.710386 -6.644554 2.509950 -1.466974 0.203858 7.678007 -3.764812 9.448012 0.872721 7.359522 -8.440146 12.518138 -2.881288 16.081639 -8.572080 1.384000 -2.552810 -7.998073 -12.203974 -0.622634 -2.951621 -24.705141 8.338898 -47.096941 -70.975972 35.553810 -4.630681 3.554405 0.055870 0.926720 -0.605570 0.276930 7.283755 5.494700 6.353199 26.169601 15.364272 7.374458 -108.265861 70.068451 -91.165890 1.277517 0.973481 -0.544480 0.465200 0.166670 -0.302990 
0.783150 16.986520 -5.577410 -4.514782 19.770605 -1.462189 -15.470361 13.040694 2.534098 -3.877067 -0.392815 -6.466927 -3.840888 6.373604 21.687134 -0.924858 5.728059 2.919834 0.441280 0.071330 0.291120 18.194473 -10.106290 3.158260 -1.866268 4.109391 -32.080470 6.250892 -3.329562 10.410747 0.326237 -2.504075 3.539521 0.561730 0.883750 0.402800 -3.300606 -1.798184 -6.618706 1.970353 -1.362875 0.656485 7.566836 -3.314983 7.735878 1.478551 7.684675 -7.425027 12.932717 -2.936463 17.276320 -8.367710 1.575730 -2.914990 -8.068887 -13.130194 0.700058 -1.802598 -23.784445 8.727822 -57.473047 -67.634185 41.345461 -4.639783 3.526124 0.106160 0.878170 -0.571420 0.257510 6.407400 6.787578 2.930122 24.991169 12.932151 -2.903878 -80.843805 88.109354 -70.459533 0.195576 3.823905 -0.538630 0.449060 0.175530 -0.310840 
